{
  "accessors": [
    {
      "bufferView": 2,
      "componentType": 5126,
      "count": 1186,
      "max": [
        10.211465835571289,
        0.9683509469032288,
        10.99002742767334
      ],
      "min": [
        0.0026626086328178644,
        -0.9683509469032288,
        0.010513782501220703
      ],
      "type": "VEC3"
    },
    {
      "bufferView": 2,
      "byteOffset": 14232,
      "componentType": 5126,
      "count": 1186,
      "max": [
        1.0,
        1.0,
        1.0
      ],
      "min": [
        -1.0,
        -1.0,
        -1.0
      ],
      "type": "VEC3"
    },
    {
      "bufferView": 1,
      "componentType": 5126,
      "count": 1186,
      "max": [
        0.9995065331459045,
        0.9984238743782043
      ],
      "min": [
        0.000493477622512728,
        0.000493477622512728
      ],
      "type": "VEC2"
    },
    {
      "bufferView": 0,
      "componentType": 5125,
      "count": 2088,
      "type": "SCALAR"
    },
    {
      "bufferView": 2,
      "byteOffset": 28464,
      "componentType": 5126,
      "count": 120,
      "max": [
        1.0,
        1.0,
        0.7335759401321411
      ],
      "min": [
        -1.425023078918457,
        -1.430433988571167,
        -13.10550594329834
      ],
      "type": "VEC3"
    },
    {
      "bufferView": 2,
      "byteOffset": 29904,
      "componentType": 5126,
      "count": 120,
      "max": [
        1.0,
        1.0,
        1.0
      ],
      "min": [
        -1.0,
        -1.0,
        -1.0
      ],
      "type": "VEC3"
    },
    {
      "bufferView": 1,
      "byteOffset": 9488,
      "componentType": 5126,
      "count": 120,
      "max": [
        0.9512424468994141,
        0.9998566508293152
      ],
      "min": [
        0.00014326305245049298,
        0.00014326305245049298
      ],
      "type": "VEC2"
    },
    {
      "bufferView": 0,
      "byteOffset": 8352,
      "componentType": 5125,
      "count": 180,
      "type": "SCALAR"
    },
    {
      "bufferView": 2,
      "byteOffset": 31344,
      "componentType": 5126,
      "count": 4704,
      "max": [
        39.306556701660156,
        0.9683509469032288,
        10.99002742767334
      ],
      "min": [
        0.0026626086328178644,
        -0.9683509469032288,
        0.010513782501220703
      ],
      "type": "VEC3"
    },
    {
      "bufferView": 2,
      "byteOffset": 87792,
      "componentType": 5126,
      "count": 4704,
      "max": [
        1.0,
        1.0,
        1.0
      ],
      "min": [
        -1.0,
        -1.0,
        -1.0
      ],
      "type": "VEC3"
    },
    {
      "bufferView": 1,
      "byteOffset": 10448,
      "componentType": 5126,
      "count": 4704,
      "max": [
        0.9995065331459045,
        0.9984238743782043
      ],
      "min": [
        0.000493477622512728,
        0.000493477622512728
      ],
      "type": "VEC2"
    },
    {
      "bufferView": 0,
      "byteOffset": 9072,
      "componentType": 5125,
      "count": 8352,
      "type": "SCALAR"
    },
    {
      "bufferView": 2,
      "byteOffset": 144240,
      "componentType": 5126,
      "count": 2566,
      "max": [
        10.211465835571289,
        0.9683509469032288,
        10.99038314819336
      ],
      "min": [
        -1.932011604309082,
        -11.164912223815918,
        -0.021515846252441406
      ],
      "type": "VEC3"
    },
    {
      "bufferView": 2,
      "byteOffset": 175032,
      "componentType": 5126,
      "count": 2566,
      "max": [
        1.0,
        1.0,
        1.0
      ],
      "min": [
        -1.0,
        -1.0,
        -1.0
      ],
      "type": "VEC3"
    },
    {
      "bufferView": 1,
      "byteOffset": 48080,
      "componentType": 5126,
      "count": 2566,
      "max": [
        0.9995065331459045,
        0.9998566508293152
      ],
      "min": [
        0.00014326305245049298,
        0.00014326305245049298
      ],
      "type": "VEC2"
    },
    {
      "bufferView": 0,
      "byteOffset": 42480,
      "componentType": 5125,
      "count": 4356,
      "type": "SCALAR"
    }
  ],
  "asset": {
    "extras": {
      "author": "Mizuchi Sensei (https://sketchfab.com/FatFreeBeefCake)",
      "license": "CC-BY-4.0 (http://creativecommons.org/licenses/by/4.0/)",
      "source": "https://sketchfab.com/3d-models/japanese-style-fence-67067ff587424f4b825c7e56c8f02c26",
      "title": "Japanese Style Fence"
    },
    "generator": "Sketchfab-12.68.0",
    "version": "2.0"
  },
  "bufferViews": [
    {
      "buffer": 0,
      "byteLength": 59904,
      "name": "floatBufferViews",
      "target": 34963
    },
    {
      "buffer": 0,
      "byteLength": 68608,
      "byteOffset": 59904,
      "byteStride": 8,
      "name": "floatBufferViews",
      "target": 34962
    },
    {
      "buffer": 0,
      "byteLength": 205824,
      "byteOffset": 128512,
      "byteStride": 12,
      "name": "floatBufferViews",
      "target": 34962
    }
  ],
  "buffers": [
    {
      "byteLength": 334336,
      "uri": "scene.bin"
    }
  ],
  "images": [
    {
      "uri": "textures/MainWood_baseColor.png"
    }
  ],
  "materials": [
    {
      "doubleSided": true,
      "name": "MainWood",
      "pbrMetallicRoughness": {
        "baseColorTexture": {
          "index": 0
        },
        "metallicFactor": 0.0,
        "roughnessFactor": 0.9954768891231464
      }
    }
  ],
  "meshes": [
    {
      "name": "MainFence_MainWood_0",
      "primitives": [
        {
          "attributes": {
            "NORMAL": 1,
            "POSITION": 0,
            "TEXCOORD_0": 2
          },
          "indices": 3,
          "material": 0,
          "mode": 4
        }
      ]
    },
    {
      "name": "FenceCornerPost_MainWood_0",
      "primitives": [
        {
          "attributes": {
            "NORMAL": 5,
            "POSITION": 4,
            "TEXCOORD_0": 6
          },
          "indices": 7,
          "material": 0,
          "mode": 4
        }
      ]
    },
    {
      "name": "MainFence_4_MainWood_0",
      "primitives": [
        {
          "attributes": {
            "NORMAL": 9,
            "POSITION": 8,
            "TEXCOORD_0": 10
          },
          "indices": 11,
          "material": 0,
          "mode": 4
        }
      ]
    },
    {
      "name": "MainFenceCorner_MainWood_0",
      "primitives": [
        {
          "attributes": {
            "NORMAL": 13,
            "POSITION": 12,
            "TEXCOORD_0": 14
          },
          "indices": 15,
          "material": 0,
          "mode": 4
        }
      ]
    }
  ],
  "nodes": [
    {
      "children": [
        1
      ],
      "matrix": [
        1.0,
        0.0,
        0.0,
        0.0,
        0.0,
        2.220446049250313e-16,
        -1.0,
        0.0,
        0.0,
        1.0,
        2.220446049250313e-16,
        0.0,
        0.0,
        0.0,
        0.0,
        1.0
      ],
      "name": "Sketchfab_model"
    },
    {
      "children": [
        2
      ],
      "matrix": [
        1.0,
        0.0,
        0.0,
        0.0,
        0.0,
        0.0,
        1.0,
        0.0,
        0.0,
        -1.0,
        0.0,
        0.0,
        0.0,
        0.0,
        0.0,
        1.0
      ],
      "name": "be04c02f5331480da5eb3bd0ec26c51c.fbx"
    },
    {
      "children": [
        3,
        5,
        7,
        9
      ],
      "name": "RootNode"
    },
    {
      "children": [
        4
      ],
      "matrix": [
        19.588529586791992,
        0.0,
        0.0,
        0.0,
        0.0,
        -3.191376548567142e-06,
        -19.588529586791733,
        0.0,
        0.0,
        19.588529586791733,
        -3.191376548567142e-06,
        0.0,
        63.27913284301758,
        0.0,
        0.0,
        1.0
      ],
      "name": "MainFence"
    },
    {
      "mesh": 0,
      "name": "MainFence_MainWood_0"
    },
    {
      "children": [
        6
      ],
      "matrix": [
        15.586793899536133,
        0.0,
        0.0,
        0.0,
        -0.0,
        -2.53941105165288e-06,
        -15.586793899535927,
        0.0,
        0.0,
        15.586793899535927,
        -2.53941105165288e-06,
        0.0,
        -15.511184692382813,
        203.85134887695313,
        -3.3445091247558594,
        1.0
      ],
      "name": "FenceCornerPost"
    },
    {
      "mesh": 1,
      "name": "FenceCornerPost_MainWood_0"
    },
    {
      "children": [
        8
      ],
      "matrix": [
        19.588529586791992,
        0.0,
        0.0,
        0.0,
        0.0,
        -3.191376548567142e-06,
        -19.588529586791733,
        0.0,
        0.0,
        19.588529586791733,
        -3.191376548567142e-06,
        0.0,
        63.27913284301758,
        0.0,
        245.83120727539063,
        1.0
      ],
      "name": "MainFence_4"
    },
    {
      "mesh": 2,
      "name": "MainFence_4_MainWood_0"
    },
    {
      "children": [
        10
      ],
      "matrix": [
        1.4788928378551946e-06,
        0.0,
        -19.58852958679194,
        0.0,
        -19.588529586791882,
        1.4788928378551946e-06,
        -1.4788928389425766e-06,
        0.0,
        1.4788928389425766e-06,
        19.58852958679194,
        1.0873818282903787e-13,
        0.0,
        -19.524097442626953,
        0.0,
        -242.60888671875,
        1.0
      ],
      "name": "MainFenceCorner"
    },
    {
      "mesh": 3,
      "name": "MainFenceCorner_MainWood_0"
    }
  ],
  "samplers": [
    {
      "magFilter": 9729,
      "minFilter": 9987,
      "wrapS": 10497,
      "wrapT": 10497
    }
  ],
  "scene": 0,
  "scenes": [
    {
      "name": "Sketchfab_Scene",
      "nodes": [
        0
      ]
    }
  ],
  "textures": [
    {
      "sampler": 0,
      "source": 0
    }
  ]
}
